<?xml version="1.0" standalone="no"?>
<!DOCTYPE svg PUBLIC "-//W3C//DTD SVG 20010904//EN"
 "http://www.w3.org/TR/2001/REC-SVG-20010904/DTD/svg10.dtd">
<svg version="1.0" xmlns="http://www.w3.org/2000/svg"
 width="1280.000000pt" height="1254.000000pt" viewBox="0 0 1280.000000 1254.000000"
 preserveAspectRatio="xMidYMid meet">
<metadata>
Created by potrace 1.15, written by Peter Selinger 2001-2017
</metadata>
<g transform="translate(0.000000,1254.000000) scale(0.100000,-0.100000)"
fill="#000000" stroke="none">
<path d="M5085 11690 c-27 -4 -93 -22 -145 -39 -147 -50 -181 -54 -395 -56
-194 -1 -202 -1 -272 -29 -69 -27 -146 -85 -169 -128 -8 -14 -52 -17 -419 -22
-778 -12 -1318 -54 -1684 -131 -117 -25 -430 -116 -591 -173 -391 -137 -762
-360 -986 -593 -144 -152 -243 -292 -325 -463 -75 -157 -113 -337 -89 -425 12
-44 88 -138 100 -124 9 11 37 100 45 143 3 18 17 52 31 74 14 23 43 69 64 103
21 34 35 64 32 68 -4 4 -2 5 3 4 6 -2 20 2 33 10 41 22 115 41 141 34 13 -3
22 -2 18 3 -3 6 81 9 210 9 l215 0 37 -45 c133 -166 223 -225 409 -270 137
-34 339 -70 557 -100 83 -11 206 -29 275 -40 69 -10 166 -24 215 -30 56 -7 97
-18 109 -28 15 -13 18 -14 12 -2 -4 8 1 5 10 -8 42 -56 254 -192 302 -192 21
-1 56 -28 71 -57 6 -12 23 -54 37 -95 36 -100 54 -122 137 -165 81 -43 75 -25
64 -187 -5 -72 -3 -81 17 -101 12 -12 52 -32 88 -44 87 -29 115 -55 123 -117
3 -27 13 -79 21 -116 14 -68 33 -306 33 -413 0 -33 4 -137 11 -231 l10 -171
-165 -473 c-91 -260 -165 -478 -165 -485 0 -9 23 -16 63 -22 l62 -8 8 -77 c7
-74 9 -79 48 -116 l42 -38 -53 -190 c-92 -335 -128 -457 -165 -558 -19 -54
-37 -112 -39 -130 -3 -17 -14 -77 -25 -133 -12 -55 -21 -113 -21 -127 0 -14
-3 -26 -7 -26 -12 0 -7 -200 5 -235 5 -16 18 -48 28 -70 21 -50 24 -250 3
-340 -8 -36 -13 -119 -13 -205 0 -123 3 -155 22 -213 27 -81 59 -136 116 -197
l43 -45 -9 -153 -9 -154 -134 -251 c-74 -139 -137 -259 -140 -268 -5 -13 2
-16 37 -16 85 0 138 -52 138 -136 0 -80 -42 -204 -129 -377 -49 -96 -92 -186
-96 -200 l-7 -25 27 25 c27 24 188 236 254 333 l33 49 25 -24 c44 -41 57 -77
55 -156 -1 -95 -29 -178 -90 -267 l-48 -70 -140 -61 c-76 -34 -145 -67 -152
-73 -7 -7 -17 -9 -24 -5 -7 5 -8 3 -3 -6 6 -10 4 -12 -9 -7 -10 4 -15 3 -11
-3 7 -12 -32 -33 -47 -24 -7 4 -8 3 -4 -4 3 -6 -3 -16 -15 -22 -17 -10 -20 -9
-14 2 5 7 -6 0 -23 -16 l-30 -28 -15 28 c-29 55 -48 65 -105 54 -66 -12 -114
-37 -187 -96 -55 -45 -59 -46 -71 -29 -8 10 -14 29 -14 41 0 58 43 212 94 335
6 13 2 15 -20 11 -17 -3 -25 -1 -21 5 4 6 -3 8 -17 6 -17 -4 -33 -22 -55 -62
-40 -76 -88 -223 -95 -291 -6 -62 -25 -165 -55 -290 -24 -103 -30 -133 -36
-185 -3 -22 -17 -89 -31 -150 -14 -60 -31 -142 -39 -182 -8 -40 -23 -110 -35
-157 -11 -47 -22 -97 -25 -113 -2 -15 -27 -140 -55 -278 -44 -210 -52 -267
-53 -360 0 -145 7 -199 26 -203 8 -2 18 1 21 7 4 5 -3 7 -16 3 -21 -5 -22 -4
-7 10 9 9 22 31 29 50 8 18 16 35 20 38 3 3 20 68 39 145 48 201 117 438 145
493 18 37 24 70 29 152 16 281 121 530 306 720 52 54 62 60 136 78 155 38 370
104 416 128 26 13 74 45 108 72 51 41 73 52 128 62 278 53 849 -143 1497 -514
l149 -85 39 38 c49 49 48 70 -1 98 -69 40 -192 145 -248 212 -30 36 -58 65
-63 64 -11 -3 -92 99 -164 206 -52 79 -176 309 -176 328 0 4 26 -41 58 -102
81 -156 266 -434 280 -421 2 2 -21 37 -51 78 -115 156 -221 353 -290 538 -55
149 -57 136 22 207 68 62 68 62 107 51 45 -12 213 -15 264 -4 l35 8 -35 -38
-35 -39 45 41 c25 22 61 47 80 54 86 32 154 77 210 137 l58 63 -22 -61 c-21
-57 -33 -70 -207 -231 -246 -228 -311 -290 -306 -294 2 -2 108 93 236 212 128
119 234 214 237 211 3 -3 -5 -40 -17 -83 -21 -73 -31 -89 -134 -214 -61 -74
-115 -142 -120 -150 -22 -37 28 17 121 130 53 66 99 119 100 117 1 -1 -5 -36
-13 -77 -20 -100 -23 -261 -4 -283 7 -10 21 -17 30 -17 47 0 140 148 216 342
27 68 50 124 51 126 1 2 40 -9 87 -24 l85 -28 -42 -39 c-43 -41 -21 -31 25 11
24 21 38 24 120 26 145 5 150 8 214 143 31 64 54 117 53 119 -2 2 -30 -46 -62
-107 -56 -104 -61 -110 -100 -120 -63 -17 -239 -6 -313 21 -35 12 -63 23 -63
25 0 1 7 22 15 46 51 142 87 341 87 473 0 76 4 111 20 150 125 317 374 1052
412 1220 6 26 11 21 74 -85 190 -320 390 -577 714 -920 86 -92 168 -185 182
-208 57 -90 91 -223 79 -310 -7 -49 -61 -116 -137 -167 -59 -39 -55 -46 5 -8
58 36 126 111 140 152 22 66 -5 213 -56 312 l-17 33 29 -24 c17 -13 77 -63
133 -111 57 -49 106 -88 109 -88 3 0 19 24 35 54 l29 54 51 -23 c182 -80 704
-210 773 -192 12 3 9 5 -9 6 -109 5 -480 99 -655 166 -171 67 -159 47 -103
172 143 322 296 833 391 1305 28 141 36 165 48 155 12 -10 12 -9 2 8 -11 17
-8 53 18 210 17 105 40 258 51 340 11 83 22 165 25 183 3 17 2 32 -2 32 -5 0
-17 -50 -26 -112 -19 -119 -65 -274 -103 -350 -31 -61 -81 -118 -119 -134 -16
-7 -23 -13 -14 -14 21 0 75 41 106 82 28 37 77 138 87 182 14 59 15 17 1 -60
-8 -43 -28 -158 -45 -254 -98 -546 -241 -1075 -400 -1469 -51 -130 -136 -311
-145 -311 -8 0 -86 65 -237 198 -116 103 -117 104 -194 245 -42 78 -91 169
-109 202 -123 226 -413 829 -440 913 -4 13 -9 21 -12 18 -7 -7 96 -262 181
-444 75 -162 238 -476 340 -656 31 -54 55 -101 53 -103 -6 -5 -166 165 -275
292 -185 216 -409 531 -516 726 l-35 64 140 224 c76 123 142 227 145 230 12
11 -9 -63 -36 -130 -14 -36 -41 -88 -59 -114 l-32 -48 49 41 c72 61 374 373
459 475 40 48 82 106 94 129 l21 41 -99 99 -98 100 80 -52 c44 -29 90 -56 103
-61 12 -5 22 -16 22 -26 0 -14 2 -15 9 -4 17 27 31 -1 30 -62 -1 -52 -3 -57
-10 -32 l-8 30 3 -33 c2 -30 -4 -39 -49 -78 -29 -25 -80 -78 -115 -117 -49
-56 -37 -46 52 42 l116 114 11 -54 c6 -30 47 -243 91 -474 86 -457 182 -914
187 -898 5 15 -67 405 -134 722 -30 146 -57 286 -58 311 -2 25 -12 79 -24 120
-41 150 -53 224 -52 321 l2 97 -73 36 c-80 39 -206 128 -215 152 -3 8 2 23 12
34 17 19 18 19 38 -22 30 -61 89 -116 132 -124 32 -6 61 6 267 106 l231 112
25 -34 c67 -88 268 -258 305 -258 49 0 152 76 298 220 80 80 165 167 187 194
l41 48 46 -40 c63 -56 109 -75 191 -80 81 -5 198 17 260 48 36 19 39 19 48 2
20 -37 88 -92 136 -109 27 -10 50 -21 50 -25 0 -19 -264 -238 -288 -238 -37 0
-113 50 -194 129 -49 46 -88 80 -88 75 1 -12 29 -61 30 -50 0 5 32 -22 71 -59
64 -60 152 -115 186 -115 31 0 323 242 323 267 0 6 -26 17 -58 26 -65 18 -137
66 -154 102 -9 21 -8 29 8 46 43 48 12 202 -86 422 -27 59 -47 107 -46 107 2
0 32 -36 67 -80 55 -69 81 -92 184 -157 136 -87 261 -149 320 -157 35 -6 34
-4 -15 12 -105 36 -333 164 -407 229 -17 15 -89 98 -159 183 -175 213 -313
369 -414 470 -47 47 -62 61 -33 30 28 -30 110 -122 182 -205 l131 -150 50
-128 c99 -253 142 -457 107 -510 -12 -19 -30 -26 -90 -37 -175 -30 -276 5
-332 115 -28 54 -30 67 -32 175 -2 187 -41 245 -84 125 -10 -29 -11 -27 -53
71 -45 106 -361 732 -378 749 -11 11 -8 5 77 -190 76 -174 172 -420 228 -586
l46 -137 -15 -58 c-18 -69 -39 -106 -91 -156 -37 -36 -97 -68 -127 -68 -25 0
-66 141 -227 775 -54 215 -98 386 -99 380 0 -5 52 -263 115 -572 63 -308 115
-573 115 -586 0 -63 -51 -133 -106 -143 -43 -8 -110 23 -151 69 -44 50 -47 87
-41 522 2 203 3 363 2 355 -2 -8 -15 -188 -29 -400 l-26 -385 -95 -92 c-97
-94 -191 -153 -244 -153 -39 0 -76 33 -97 88 -25 66 -23 254 6 426 12 71 24
132 26 136 3 5 1 20 -5 35 -7 19 -16 25 -30 23 -16 -2 -30 -31 -70 -147 -75
-218 -134 -334 -147 -293 -3 6 -13 12 -23 12 -30 0 -149 87 -292 211 -165 145
-545 510 -628 604 -101 114 -291 365 -276 365 2 0 48 -18 102 -39 258 -102
486 -139 653 -107 101 19 117 30 71 50 l-34 14 60 11 c107 21 132 31 154 61
24 33 21 52 -26 184 -34 97 -37 95 171 63 144 -22 391 4 569 60 134 42 368
170 416 228 8 10 -16 -3 -54 -29 -76 -52 -245 -140 -253 -132 -3 3 39 27 93
54 55 27 129 70 167 95 37 25 65 41 61 36 -3 -5 -1 -9 4 -9 5 0 57 49 115 109
104 107 216 261 272 376 26 53 78 226 70 234 -3 2 -5 -2 -5 -9 0 -7 -48 -62
-107 -121 l-107 -109 -40 6 c-223 31 -527 129 -678 218 -85 51 -71 29 25 -39
150 -106 339 -257 413 -329 84 -82 107 -132 83 -182 -35 -73 -141 -68 -456 22
-427 122 -381 103 -502 214 -190 176 -554 556 -546 570 3 6 27 10 53 10 133 0
504 58 667 105 101 29 237 76 232 81 -1 2 -58 -15 -125 -36 -196 -63 -435
-108 -707 -134 l-140 -13 -95 92 c-183 178 -457 326 -729 395 l-44 12 62 35
c34 19 61 36 59 38 -2 1 -48 -6 -103 -16 -55 -10 -174 -23 -265 -28 -91 -6
-217 -15 -280 -21 -178 -17 -557 0 -890 41 -213 26 -227 30 -277 81 -41 42
-90 124 -81 134 3 2 57 0 119 -6 296 -28 538 -40 844 -40 497 0 762 34 928
117 40 20 46 27 37 38 -19 23 43 -10 65 -35 21 -24 48 -26 65 -5 20 23 3 55
-30 55 -48 0 -60 9 -60 46 0 26 -10 45 -41 79 -23 25 -45 45 -50 45 -4 0 11
-19 34 -41 l42 -42 -45 39 c-25 21 -44 43 -42 48 2 4 -5 5 -15 2 -9 -4 -14 -4
-10 0 4 4 -25 21 -63 37 -39 16 -70 31 -68 33 12 11 337 -135 416 -187 l32
-21 0 74 c0 41 3 130 7 196 5 110 8 121 22 110 12 -10 12 -8 -1 8 -33 38 -20
44 40 17 143 -63 315 -80 498 -48 48 9 94 13 101 10 8 -2 12 -1 9 4 -3 4 12
13 33 19 21 7 59 23 85 37 58 31 57 31 241 0 220 -38 517 -109 670 -160 11 -4
-34 23 -99 60 -198 110 -555 347 -686 456 -33 27 -24 23 95 -37 114 -59 385
-178 391 -172 2 2 -38 21 -89 43 -51 21 -181 83 -289 137 -153 77 -217 115
-284 170 l-87 72 23 18 c15 12 39 18 74 18 l51 1 -68 35 c-42 21 -65 39 -61
46 5 7 3 8 -5 3 -24 -14 -204 122 -474 356 -44 38 -47 40 -37 15 7 -18 7 -33
0 -46 -5 -10 -10 -37 -10 -59 0 -35 -4 -43 -29 -56 l-29 -15 -273 198 -272
197 54 8 c70 12 169 39 244 68 52 20 76 23 180 22 72 0 141 -6 172 -15 41 -12
66 -13 110 -5 81 14 415 13 491 -2 60 -12 66 -15 140 -93 150 -158 311 -291
510 -425 53 -35 99 -67 102 -70 9 -9 -203 102 -247 130 -54 34 -180 77 -227
77 -40 0 -68 22 -321 248 -96 85 -116 101 -55 43 52 -50 145 -135 207 -188
l112 -98 -63 -20 c-35 -11 -83 -34 -106 -50 -48 -33 -117 -109 -143 -157 -17
-31 -17 -32 0 -8 40 57 136 149 181 173 26 14 70 30 99 35 l51 9 139 -104
c201 -151 522 -347 540 -329 4 3 2 6 -3 6 -17 0 -224 119 -331 191 -59 39
-154 107 -212 151 l-106 81 50 -7 c28 -3 83 -23 125 -44 149 -76 322 -173 393
-219 70 -47 227 -187 227 -204 0 -5 -12 -4 -26 2 -15 5 -29 7 -31 5 -3 -3 13
-10 35 -17 43 -12 65 -45 78 -114 5 -27 30 -62 99 -138 115 -126 347 -355 440
-434 73 -63 225 -177 256 -194 33 -17 20 -3 -28 31 -115 81 -269 215 -413 360
-196 195 -330 346 -330 371 0 11 -6 35 -14 54 -13 30 -13 34 2 38 16 4 16 5 0
6 -9 0 -39 30 -66 64 -42 54 -111 113 -232 200 -14 9 0 4 30 -13 115 -65 292
-151 416 -203 192 -81 198 -77 19 11 -310 153 -497 282 -703 485 -97 96 -220
242 -211 251 6 7 169 -63 287 -123 392 -197 749 -502 955 -814 30 -47 64 -85
82 -94 94 -48 181 -140 267 -285 36 -61 44 -87 79 -265 55 -276 65 -341 91
-558 38 -328 29 -597 -41 -1147 l-18 -139 61 6 c57 6 63 5 86 -20 14 -15 48
-43 75 -63 176 -127 527 -463 541 -518 7 -28 -9 -167 -27 -229 -6 -22 -29 -57
-50 -78 -38 -38 -41 -39 -98 -35 -74 5 -133 40 -269 157 -129 111 -302 253
-302 247 0 -2 64 -58 143 -123 224 -189 255 -222 315 -343 29 -58 55 -121 59
-140 5 -33 0 -30 -118 85 -163 159 -529 485 -529 472 0 -2 93 -87 208 -189
286 -255 462 -426 532 -519 105 -140 170 -299 170 -419 0 -62 -16 -131 -34
-142 -8 -6 -8 -8 1 -8 6 0 30 16 53 35 49 41 137 69 190 62 31 -4 54 -21 131
-98 52 -52 147 -134 212 -184 254 -194 353 -232 482 -182 55 21 78 8 195 -112
52 -53 124 -124 159 -156 65 -60 233 -300 282 -403 13 -26 46 -83 75 -127 99
-155 229 -375 220 -375 -3 0 -79 95 -171 210 -92 116 -169 210 -171 210 -5 0
65 -93 285 -374 89 -115 137 -186 168 -253 25 -52 43 -98 41 -103 -4 -13 -201
164 -473 423 -197 188 -198 188 -55 43 80 -81 236 -233 348 -338 184 -173 202
-193 202 -223 0 -42 -45 -90 -93 -99 -62 -12 -162 33 -279 124 l-26 20 -20
-53 c-11 -29 -23 -74 -27 -101 l-8 -48 -14 31 c-22 44 -131 165 -256 282
l-108 102 8 -54 c12 -79 8 -350 -6 -454 -54 -409 -208 -965 -267 -965 -50 0
-283 192 -696 572 -135 126 -249 228 -252 228 -3 0 -6 -4 -6 -9 0 -11 318
-309 536 -502 422 -374 431 -384 388 -420 -24 -20 -43 -62 -163 -364 -121
-302 -198 -472 -223 -493 -34 -27 -87 77 -189 368 -32 91 -58 159 -58 152 -1
-8 36 -130 80 -273 45 -143 79 -262 76 -265 -2 -3 -91 18 -197 46 -105 29
-194 50 -196 48 -4 -5 409 -117 414 -113 1 1 -7 31 -18 66 -26 85 -25 94 6 34
35 -69 59 -93 82 -79 30 18 99 164 221 467 125 310 151 368 182 400 32 34 24
61 -33 112 l-53 46 51 -26 c27 -14 57 -23 66 -20 63 24 213 563 270 970 7 50
13 174 13 276 l0 187 25 -18 c36 -26 242 -239 269 -277 12 -18 37 -77 55 -130
121 -355 383 -1030 386 -992 0 4 -13 38 -29 75 -64 151 -351 926 -351 948 0 9
435 -30 565 -50 133 -20 245 -48 294 -73 52 -27 166 -120 293 -238 117 -110
88 -77 -131 151 -84 87 -180 193 -213 234 -107 134 -451 663 -621 955 -166
282 -207 386 -193 485 l6 45 -178 181 c-367 374 -538 676 -489 864 l14 53 -51
60 c-49 59 -147 141 -193 162 -25 11 -27 19 -42 179 -6 59 -17 133 -26 165
-20 78 -67 284 -69 303 -1 9 -5 21 -10 28 -4 6 -5 16 -2 20 9 15 -81 186 -121
230 -21 23 -58 52 -82 65 -35 18 -47 32 -63 72 -52 133 -201 334 -336 454 -57
51 -72 70 -72 92 0 16 -18 83 -40 150 -45 138 -44 133 -28 123 7 -4 8 -3 4 5
-4 6 -11 9 -16 6 -4 -3 -11 2 -14 11 -9 22 -8 26 6 18 7 -4 8 -3 4 5 -4 6 -11
9 -15 6 -5 -2 -13 7 -20 21 -9 20 -9 24 1 19 7 -4 2 3 -12 15 -14 12 -18 18
-10 14 27 -15 -85 119 -142 168 -49 43 -61 61 -93 141 -20 51 -41 97 -46 103
-14 17 -58 141 -63 176 -3 18 -14 65 -26 103 -11 39 -27 108 -35 154 -9 54
-27 110 -52 160 -33 68 -37 84 -38 156 0 76 -3 85 -53 185 -29 58 -60 111 -69
118 -9 6 -13 12 -9 12 14 0 -35 59 -63 76 -22 13 -37 38 -60 100 -18 46 -38
90 -46 98 -8 7 -16 20 -17 27 -2 7 -11 22 -21 33 -10 11 -15 27 -12 35 3 9 3
12 -1 8 -9 -9 -37 30 -29 42 3 5 0 13 -6 17 -8 5 -9 3 -4 -6 6 -9 4 -11 -4 -6
-7 5 -10 14 -7 22 3 7 0 16 -6 20 -7 5 -8 2 -4 -7 4 -8 1 -5 -8 5 -8 10 -13
22 -11 27 3 4 0 11 -6 15 -8 4 -9 3 -5 -4 15 -24 -2 -11 -19 14 -11 18 -13 24
-4 19 8 -4 -2 7 -21 25 -19 18 -26 26 -15 19 41 -29 -114 137 -200 213 -164
146 -330 255 -570 376 -77 38 -180 84 -230 102 -270 95 -657 139 -1053 118
-128 -6 -188 -6 -197 2 -23 19 -153 60 -222 70 -77 11 -145 11 -218 0z m-165
-421 c85 -67 203 -155 262 -196 59 -41 108 -76 108 -79 0 -9 -56 9 -66 22 -6
8 -16 14 -23 14 -33 0 -117 58 -193 132 -46 46 -125 112 -176 148 -50 36 -92
68 -92 73 -1 22 41 -5 180 -114z m-1037 -153 c45 -19 107 -45 137 -59 36 -16
81 -27 129 -31 40 -3 75 -7 78 -10 17 -17 -134 -151 -181 -161 -12 -2 -61 -7
-111 -12 l-90 -7 67 -6 c36 -3 70 -8 74 -12 4 -5 0 -8 -9 -8 -30 0 -18 -15 29
-34 25 -10 48 -25 51 -32 3 -8 13 -14 23 -14 9 0 35 -12 56 -26 132 -89 119
-188 -37 -278 -32 -18 -61 -26 -100 -27 -47 -1 -49 -2 -19 -8 42 -7 37 -11
-66 -45 l-81 -27 -209 15 c-115 8 -252 14 -304 14 -52 -1 -178 7 -280 16 -386
37 -1457 31 -1822 -9 -294 -33 -571 -121 -790 -252 -54 -32 -75 -27 -91 20 -8
24 -2 37 50 109 79 112 276 310 399 401 279 205 598 352 969 446 43 11 81 18
83 16 2 -2 -11 -11 -30 -21 -66 -34 -174 -113 -244 -178 -133 -123 -209 -267
-156 -295 44 -23 186 23 370 119 63 33 115 60 117 60 2 0 -1 -15 -6 -32 -14
-50 -11 -54 19 -26 27 26 27 26 51 7 13 -10 38 -19 57 -19 28 0 44 10 87 53
62 62 160 122 278 171 109 45 293 98 297 86 11 -31 55 -79 97 -107 27 -18 53
-33 56 -33 4 0 3 17 -2 38 -12 52 -11 93 4 122 14 28 48 36 270 65 133 17 198
15 345 -10 57 -10 72 -10 72 0 0 7 -7 19 -17 26 -15 13 -12 15 23 20 21 3 92
7 157 8 113 1 122 0 200 -33z m-1700 -753 c-46 -2 -120 -2 -165 0 -46 1 -9 3
82 3 91 0 128 -2 83 -3z m-320 -10 c-40 -2 -106 -2 -145 0 -40 1 -8 3 72 3 80
0 112 -2 73 -3z m819 -3 c438 -30 875 -90 1161 -160 125 -30 478 -133 473
-137 -2 -2 -75 17 -163 42 -88 25 -168 43 -179 39 -14 -4 -15 -3 -5 4 10 7 6
11 -15 15 -16 2 -108 21 -204 40 -96 20 -204 41 -240 46 -36 5 -99 15 -140 21
-307 45 -745 86 -995 93 -76 2 -71 3 32 5 67 1 190 -3 275 -8z m-962 -15 l95
-13 -105 5 c-58 3 -123 9 -145 13 l-40 8 50 0 c28 0 93 -6 145 -13z m813 -2
c-13 -2 -33 -2 -45 0 -13 2 -3 4 22 4 25 0 35 -2 23 -4z m115 -10 c-10 -2 -28
-2 -40 0 -13 2 -5 4 17 4 22 1 32 -1 23 -4z m-604 -25 c87 -12 154 -24 147
-26 -6 -2 -79 6 -163 17 -84 12 -166 22 -183 24 -28 4 -28 4 5 6 19 0 106 -9
194 -21z m754 15 c-10 -2 -28 -2 -40 0 -13 2 -5 4 17 4 22 1 32 -1 23 -4z m90
-10 c-10 -2 -28 -2 -40 0 -13 2 -5 4 17 4 22 1 32 -1 23 -4z m162 -12 c33 -6
37 -9 15 -9 -16 0 -50 3 -75 7 -33 6 -37 9 -15 9 17 0 50 -3 75 -7z m209 -27
c8 -7 -64 -3 -104 6 -31 7 -24 7 30 3 39 -3 72 -7 74 -9z m-900 -10 c8 -7 -94
-2 -124 6 -18 5 1 6 45 3 41 -3 77 -7 79 -9z m1001 -3 c34 -6 37 -9 15 -9 -16
-1 -48 3 -70 7 -53 11 -5 12 55 2z m-730 -22 c58 -6 125 -15 150 -20 44 -8 44
-8 -10 -4 -68 5 -242 23 -335 35 l-70 9 80 -4 c44 -3 127 -10 185 -16z m899
-5 c8 -7 -63 -2 -94 7 -20 5 -9 6 30 2 33 -3 62 -7 64 -9z m44 -11 c-7 -2 -19
-2 -25 0 -7 3 -2 5 12 5 14 0 19 -2 13 -5z m-1020 -10 c-7 -2 -19 -2 -25 0 -7
3 -2 5 12 5 14 0 19 -2 13 -5z m1080 0 c-7 -2 -21 -2 -30 0 -10 3 -4 5 12 5
17 0 24 -2 18 -5z m-924 -13 c29 -1 33 -3 19 -11 -12 -7 -38 -5 -85 6 -59 13
-61 14 -19 10 27 -3 65 -5 85 -5z m271 -5 l85 -15 -70 7 c-38 3 -92 9 -120 13
-41 6 -44 7 -15 8 19 1 73 -5 120 -13z m740 5 c20 -6 21 -8 5 -8 -11 0 -31 4
-45 8 -20 6 -21 8 -5 8 11 0 31 -4 45 -8z m-911 -14 c-2 -2 -22 -6 -44 -10
-29 -5 -36 -4 -25 3 13 10 79 16 69 7z m988 -2 c-3 -3 -12 -4 -19 -1 -8 3 -5
6 6 6 11 1 17 -2 13 -5z m-862 -13 c53 -11 5 -12 -55 -2 -34 6 -37 9 -15 9 17
1 48 -3 70 -7z m362 -23 c73 -12 130 -24 128 -26 -5 -5 -244 32 -320 49 -38 8
-37 8 10 3 28 -3 109 -15 182 -26z m-402 -3 c50 -13 83 -23 75 -24 -8 0 -58
10 -110 23 -52 14 -86 25 -75 25 11 0 61 -11 110 -24z m180 6 c26 -6 31 -9 15
-9 -14 -1 -43 3 -65 7 -26 6 -31 9 -15 9 14 1 43 -3 65 -7z m130 -20 c26 -6
31 -9 15 -9 -14 -1 -43 3 -65 7 -26 6 -31 9 -15 9 14 1 43 -3 65 -7z m-72 -46
c45 -13 77 -24 70 -24 -14 -1 -206 49 -213 56 -7 7 47 -5 143 -32z m291 8 c82
-15 144 -29 139 -30 -10 -4 -284 43 -308 52 -29 10 35 2 169 -22z m115 11 c8
-7 -54 -2 -79 6 -17 6 -9 7 25 3 28 -3 52 -7 54 -9z m199 -40 c279 -59 700
-171 655 -173 -6 -1 -24 4 -40 10 -50 19 -443 117 -618 154 -176 37 -199 43
-177 44 8 1 89 -15 180 -35z m-410 -31 c30 -8 52 -17 50 -19 -5 -4 -151 36
-158 44 -6 6 33 -3 108 -25z m337 12 c28 -7 41 -13 30 -13 -11 0 -42 6 -70 13
-27 7 -41 13 -30 13 11 0 43 -6 70 -13z m876 -51 c110 -37 198 -68 196 -70 -4
-4 -398 124 -406 132 -10 10 22 0 210 -62z m-582 -14 c206 -51 554 -149 601
-170 39 -17 3 -7 -206 54 -151 44 -445 120 -619 159 l-20 5 20 1 c11 0 112
-22 224 -49z m-483 6 c38 -12 100 -35 137 -49 132 -50 402 -111 752 -171 77
-13 131 -24 120 -25 -25 -1 -276 41 -445 75 -166 33 -343 79 -427 111 -37 14
-104 39 -148 54 -44 15 -75 28 -69 28 6 1 42 -10 80 -23z m1304 -76 c8 -5 11
-10 5 -10 -5 0 -17 5 -25 10 -8 5 -10 10 -5 10 6 0 17 -5 25 -10z m-230 -61
c166 -53 322 -111 317 -116 -2 -2 -17 2 -33 8 -16 7 -119 42 -229 80 -110 37
-195 68 -190 68 6 1 66 -17 135 -40z m110 -70 c10 -6 4 -7 -15 -3 -16 4 -37
11 -45 15 -10 6 -4 7 15 3 17 -4 37 -11 45 -15z m-1505 1 c31 -7 24 -7 -29 -3
l-69 6 5 -79 c3 -45 2 -66 -2 -49 -4 17 -8 54 -9 83 l-1 52 33 -1 c17 0 50 -4
72 -9z m255 -30 c55 -6 58 -7 20 -8 -25 -1 -88 6 -140 13 -91 14 -92 14 -20 9
41 -4 104 -10 140 -14z m1335 0 c13 -6 15 -9 5 -9 -8 0 -22 4 -30 9 -18 12 -2
12 25 0z m-1036 -26 c8 -7 -133 -2 -184 6 -32 5 -9 6 65 2 63 -2 117 -6 119
-8z m1136 -10 c24 -11 25 -13 5 -8 -14 4 -38 13 -55 20 -24 11 -25 13 -5 8 14
-4 39 -13 55 -20z m202 -16 c-3 -7 -5 -2 -5 12 0 14 2 19 5 13 2 -7 2 -19 0
-25z m-647 8 c28 -6 -535 -3 -610 3 -41 3 76 5 260 3 184 -2 342 -5 350 -6z
m83 7 c-13 -2 -33 -2 -45 0 -13 2 -3 4 22 4 25 0 35 -2 23 -4z m504 -19 c18
-8 33 -16 33 -19 0 -5 -102 34 -110 42 -6 7 33 -5 77 -23z m-22 -25 c22 -11
29 -16 15 -13 -14 4 -43 15 -65 25 -22 11 -29 16 -15 13 14 -4 43 -15 65 -25z
m45 -44 c0 -6 -56 -35 -67 -35 -4 1 8 9 27 20 39 22 40 22 40 15z m-1852 -80
c104 -10 115 -14 23 -10 -47 3 -88 8 -93 13 -4 4 -10 23 -13 42 l-5 35 11 -37
c11 -36 11 -37 77 -43z m1762 35 c-8 -5 -22 -9 -30 -9 -10 0 -8 3 5 9 27 12
43 12 25 0z m-100 -30 c-14 -4 -34 -8 -45 -8 -16 0 -15 2 5 8 14 4 34 8 45 8
16 0 15 -2 -5 -8z m-77 -17 c-7 -2 -21 -2 -30 0 -10 3 -4 5 12 5 17 0 24 -2
18 -5z m-1400 -10 c-13 -2 -33 -2 -45 0 -13 2 -3 4 22 4 25 0 35 -2 23 -4z
m1340 0 c-7 -2 -21 -2 -30 0 -10 3 -4 5 12 5 17 0 24 -2 18 -5z m-1205 -10
c-21 -2 -55 -2 -75 0 -21 2 -4 4 37 4 41 0 58 -2 38 -4z m1130 0 c-16 -2 -40
-2 -55 0 -16 2 -3 4 27 4 30 0 43 -2 28 -4z m-981 -10 c-20 -2 -52 -2 -70 0
-17 2 0 4 38 4 39 0 53 -2 32 -4z m876 0 c-13 -2 -35 -2 -50 0 -16 2 -5 4 22
4 28 0 40 -2 28 -4z m-265 -10 c-103 -2 -274 -2 -380 0 -106 1 -22 2 187 2
209 0 296 -1 193 -2z m1547 -2333 c-3 -5 -39 -9 -78 -8 l-72 2 70 6 c39 4 74
7 78 8 5 1 5 -2 2 -8z m-203 -537 c40 -36 165 -152 278 -257 113 -105 256
-238 318 -295 l112 -104 0 -87 c0 -82 -2 -89 -32 -128 l-31 -41 -68 60 c-135
121 -554 595 -554 628 0 4 -14 25 -31 46 -85 108 -136 208 -119 235 16 26 57
8 127 -57z m72 -307 c76 -95 76 -95 43 -89 -42 6 -138 -30 -182 -68 l-34 -30
-6 48 c-4 26 -11 64 -16 83 -23 88 5 128 80 116 36 -5 39 -4 34 14 -3 11 -3
20 0 20 3 0 39 -42 81 -94z m-485 -67 c54 -79 60 -93 49 -112 -19 -37 -230
-412 -232 -414 -2 -2 -10 53 -20 122 -10 68 -28 164 -41 212 l-24 88 24 40
c34 57 141 154 172 155 6 0 39 -41 72 -91z m557 -47 c21 -14 34 -51 34 -99 0
-49 0 -49 -147 -210 -81 -89 -148 -161 -150 -159 -2 2 1 52 7 112 5 60 10 140
10 177 0 92 18 122 95 158 58 28 127 38 151 21z m79 -69 c21 -26 33 -43 26
-39 -15 10 -10 -12 19 -77 l19 -41 -33 -46 c-243 -334 -327 -453 -323 -456 2
-3 82 102 176 233 95 131 176 239 181 241 7 3 40 -87 74 -204 l14 -52 -180
-218 c-250 -303 -248 -300 -248 -280 0 9 -4 58 -10 109 -5 51 -11 112 -14 137
-5 44 -31 204 -41 246 -4 17 29 58 150 190 l155 169 -2 68 c-2 37 -3 67 -3 67
1 0 18 -21 40 -47z m-505 -119 c18 -41 33 -81 33 -88 0 -13 -334 -489 -339
-483 -2 1 -4 53 -5 115 l-1 111 47 53 c48 54 128 183 186 301 18 37 36 67 40
67 3 0 21 -34 39 -76z m70 -196 c43 -158 54 -133 -178 -387 -112 -122 -202
-224 -200 -227 3 -2 94 94 204 215 109 121 202 220 207 220 4 1 7 -14 8 -31 1
-18 4 -44 8 -58 7 -20 9 -14 16 34 10 73 19 58 35 -56 l12 -87 -208 -288
c-114 -158 -219 -303 -232 -320 -13 -18 -20 -33 -16 -33 5 0 110 141 234 313
l225 312 7 -70 c3 -39 9 -100 13 -136 l6 -67 -162 -193 c-90 -107 -201 -239
-248 -294 -47 -55 -78 -94 -68 -86 9 7 120 133 245 279 256 298 238 288 241
131 l1 -76 -282 -324 c-402 -463 -436 -499 -564 -594 -63 -47 -116 -85 -119
-85 -3 0 17 27 44 61 52 65 165 274 201 374 90 247 170 527 219 764 l18 91
-33 -4 -34 -4 6 101 c6 99 7 104 47 163 117 170 313 443 318 443 4 1 17 -36
29 -81z m608 -220 c27 -145 50 -102 -204 -393 -124 -143 -230 -261 -235 -263
-5 -2 -9 42 -9 103 l0 106 213 254 c116 139 215 254 218 254 3 1 11 -27 17
-61z m26 -170 c-16 -25 -467 -604 -482 -618 -9 -8 -4 1 9 20 14 19 93 130 176
245 149 206 277 365 295 365 5 0 6 -5 2 -12z m4 -213 l-3 -110 -174 -280 c-95
-154 -184 -293 -196 -310 -12 -16 -53 -51 -91 -77 -54 -36 -86 -49 -148 -62
-44 -9 -117 -31 -163 -50 -45 -18 -83 -31 -83 -29 0 8 167 232 257 345 51 65
92 124 91 130 -2 7 2 12 8 11 6 -1 120 138 255 308 279 354 254 341 247 124z
m-349 -762 l-24 -88 -3 56 c-2 44 2 65 19 93 12 20 24 34 27 32 3 -3 -6 -45
-19 -93z m-1552 -1705 c-3 -8 -6 -5 -6 6 -1 11 2 17 5 13 3 -3 4 -12 1 -19z
m166 -49 l37 -13 -57 -58 c-32 -32 -61 -58 -65 -58 -10 0 -41 148 -34 165 3 8
1 15 -4 15 -6 0 -10 4 -10 10 0 5 21 -3 48 -19 26 -16 64 -35 85 -42z m-34
-364 c0 -5 -6 1 -14 15 -8 14 -14 30 -14 35 0 6 6 -1 14 -15 8 -14 14 -29 14
-35z"/>
<path d="M3753 10783 c-17 -6 -16 -46 1 -88 18 -43 61 -65 126 -65 49 0 51 1
44 23 -28 91 -111 155 -171 130z"/>
<path d="M3563 10423 c15 -2 37 -2 50 0 12 2 0 4 -28 4 -27 0 -38 -2 -22 -4z"/>
<path d="M3718 10413 c17 -2 47 -2 65 0 17 2 3 4 -33 4 -36 0 -50 -2 -32 -4z"/>
<path d="M3863 10403 c15 -2 39 -2 55 0 15 2 2 4 -28 4 -30 0 -43 -2 -27 -4z"/>
<path d="M4984 4518 l-29 -33 33 29 c17 17 32 31 32 33 0 8 -8 1 -36 -29z"/>
<path d="M4919 4443 c-13 -16 -12 -17 4 -4 16 13 21 21 13 21 -2 0 -10 -8 -17
-17z"/>
<path d="M6330 10785 c0 -7 141 -77 146 -73 2 2 -30 21 -71 41 -41 20 -75 35
-75 32z"/>
<path d="M6560 10670 c19 -11 40 -19 45 -19 6 0 -6 8 -25 19 -19 11 -39 19
-45 19 -5 0 6 -8 25 -19z"/>
<path d="M6620 10647 c0 -7 181 -79 186 -74 2 2 -33 18 -78 36 -46 18 -89 35
-95 38 -7 3 -13 3 -13 0z"/>
<path d="M7000 10615 c14 -8 30 -14 35 -14 6 0 -1 6 -15 14 -14 8 -29 14 -35
14 -5 0 1 -6 15 -14z"/>
<path d="M6680 10240 c8 -5 20 -10 25 -10 6 0 3 5 -5 10 -8 5 -19 10 -25 10
-5 0 -3 -5 5 -10z"/>
<path d="M6760 10210 c8 -5 20 -10 25 -10 6 0 3 5 -5 10 -8 5 -19 10 -25 10
-5 0 -3 -5 5 -10z"/>
<path d="M6040 9986 c0 -2 7 -7 16 -10 8 -3 12 -2 9 4 -6 10 -25 14 -25 6z"/>
<path d="M6090 9960 c8 -5 20 -10 25 -10 6 0 3 5 -5 10 -8 5 -19 10 -25 10 -5
0 -3 -5 5 -10z"/>
<path d="M7085 9888 c82 -44 365 -162 365 -152 0 13 -370 175 -397 174 -4 -1
10 -10 32 -22z"/>
<path d="M6340 9826 c0 -2 8 -10 18 -17 15 -13 16 -12 3 4 -13 16 -21 21 -21
13z"/>
<path d="M7475 9753 c-10 -27 -27 -59 -39 -73 -19 -23 -19 -23 -1 -9 13 11 31
15 53 12 60 -10 92 44 56 95 -25 36 -49 28 -69 -25z"/>
<path d="M6410 9776 c0 -2 8 -10 18 -17 15 -13 16 -12 3 4 -13 16 -21 21 -21
13z"/>
<path d="M6490 9705 c19 -19 36 -35 39 -35 3 0 -10 16 -29 35 -19 19 -36 35
-39 35 -3 0 10 -16 29 -35z"/>
<path d="M7990 9686 c0 -3 9 -10 20 -16 11 -6 20 -8 20 -6 0 3 -9 10 -20 16
-11 6 -20 8 -20 6z"/>
<path d="M6610 9455 c-26 -61 -25 -73 5 -81 58 -14 101 60 58 98 -38 32 -43
30 -63 -17z"/>
<path d="M7130 9458 c0 -3 76 -73 170 -158 98 -88 167 -157 163 -164 -3 -6 -3
-8 1 -4 5 4 17 -2 29 -12 11 -11 22 -18 24 -16 4 4 -53 59 -245 237 -113 104
-142 128 -142 117z"/>
<path d="M8112 9210 c0 -14 2 -19 5 -12 2 6 2 18 0 25 -3 6 -5 1 -5 -13z"/>
<path d="M7867 8982 c26 -26 91 -94 144 -152 84 -91 96 -109 93 -135 -46 -401
-77 -543 -166 -780 -17 -44 -34 -84 -38 -88 -4 -5 -29 3 -56 16 -61 31 -124
57 -124 52 0 -2 36 -30 80 -61 l79 -57 -16 -31 c-9 -17 -27 -48 -40 -69 -14
-22 -22 -41 -20 -44 3 -2 22 26 43 64 20 37 39 70 40 72 1 1 18 -8 36 -22 70
-51 78 -44 22 21 l-36 42 40 102 c55 139 88 258 117 415 31 165 56 399 53 500
l-2 78 -5 -80 -6 -79 -53 66 c-56 71 -207 218 -223 218 -6 0 11 -21 38 -48z"/>
<path d="M6957 8957 c18 -21 29 -28 31 -19 5 17 -26 52 -46 52 -9 0 -5 -11 15
-33z"/>
<path d="M6730 8950 c-8 -5 -10 -10 -5 -10 6 0 17 5 25 10 8 5 11 10 5 10 -5
0 -17 -5 -25 -10z"/>
<path d="M6980 8902 c0 -12 -46 -32 -71 -32 -11 0 -17 -4 -14 -10 10 -16 61
-11 77 8 23 27 30 42 19 42 -6 0 -11 -4 -11 -8z"/>
<path d="M7170 8821 c0 -8 381 -154 386 -148 2 2 -84 38 -191 79 -107 42 -195
73 -195 69z"/>
<path d="M7580 8662 c8 -5 26 -13 40 -16 17 -5 20 -4 10 2 -8 5 -26 13 -40 16
-17 5 -20 4 -10 -2z"/>
<path d="M7660 8630 c8 -5 20 -10 25 -10 6 0 3 5 -5 10 -8 5 -19 10 -25 10 -5
0 -3 -5 5 -10z"/>
<path d="M7810 8581 c0 -5 7 -12 16 -15 14 -5 15 -4 4 9 -14 17 -20 19 -20 6z"/>
<path d="M7655 7688 c66 -39 122 -73 124 -74 8 -7 -86 -122 -159 -194 -72 -71
-72 -72 -14 -22 48 40 131 133 182 202 2 2 17 -3 33 -12 47 -27 33 -7 -29 43
-83 66 -110 83 -175 107 -96 36 -88 26 38 -50z"/>
<path d="M8115 7420 c10 -11 20 -20 23 -20 3 0 -3 9 -13 20 -10 11 -20 20 -23
20 -3 0 3 -9 13 -20z"/>
<path d="M7465 7380 c10 -11 20 -20 23 -20 3 0 -3 9 -13 20 -10 11 -20 20 -23
20 -3 0 3 -9 13 -20z"/>
<path d="M7980 7375 c13 -14 26 -25 28 -25 3 0 -5 11 -18 25 -13 14 -26 25
-28 25 -3 0 5 -11 18 -25z"/>
<path d="M7504 7328 c-41 -30 -52 -42 -29 -30 26 15 72 51 64 52 -4 0 -19 -10
-35 -22z"/>
<path d="M7051 7194 c0 -11 3 -14 6 -6 3 7 2 16 -1 19 -3 4 -6 -2 -5 -13z"/>
<path d="M7933 6940 c-13 -5 -23 -13 -23 -18 0 -15 33 -40 62 -47 32 -8 44 10
34 50 -7 27 -31 32 -73 15z"/>
<path d="M6146 6459 c-29 -23 -34 -54 -10 -63 9 -3 43 -6 76 -6 l60 0 -7 28
c-15 62 -69 81 -119 41z"/>
<path d="M8507 6085 c36 -46 102 -110 184 -178 l56 -47 40 64 c44 68 104 113
172 127 31 7 28 8 -17 5 -66 -4 -124 -42 -167 -108 -16 -26 -34 -47 -39 -47
-13 -1 -84 57 -175 144 -53 49 -73 65 -54 40z"/>
<path d="M8848 6063 c6 -2 18 -2 25 0 6 3 1 5 -13 5 -14 0 -19 -2 -12 -5z"/>
<path d="M9205 5950 c10 -11 20 -20 23 -20 3 0 -3 9 -13 20 -10 11 -20 20 -23
20 -3 0 3 -9 13 -20z"/>
<path d="M9240 5927 c0 -3 80 -74 178 -158 279 -242 309 -274 377 -411 44 -87
59 -130 63 -171 4 -49 2 -56 -18 -67 -61 -33 -214 36 -405 181 -178 134 -361
266 -495 355 -177 118 -179 112 -5 -12 61 -43 227 -166 370 -274 263 -198 344
-246 452 -271 126 -29 156 46 82 209 -55 121 -115 206 -201 284 -105 94 -398
341 -398 335z"/>
<path d="M7992 5610 c0 -14 2 -19 5 -12 2 6 2 18 0 25 -3 6 -5 1 -5 -13z"/>
<path d="M10006 5510 c68 -39 104 -82 104 -126 0 -21 4 -33 10 -29 16 10 12
68 -7 95 -22 32 -38 45 -90 70 -64 30 -75 24 -17 -10z"/>
<path d="M7100 5476 c0 -7 -9 -81 -20 -163 -44 -331 -90 -543 -140 -648 -32
-66 -42 -79 -77 -89 -49 -15 -123 89 -198 280 -42 108 -47 97 -6 -15 42 -112
86 -195 127 -241 102 -112 196 20 263 370 32 162 71 520 57 520 -3 0 -6 -6 -6
-14z"/>
<path d="M6502 5450 c0 -14 2 -19 5 -12 2 6 2 18 0 25 -3 6 -5 1 -5 -13z"/>
<path d="M8545 5270 c22 -183 103 -309 236 -370 24 -11 51 -20 61 -20 9 0 29
-23 46 -52 68 -121 224 -300 367 -421 33 -28 3 6 -67 76 -135 135 -238 264
-283 352 -24 48 -32 56 -76 70 -52 17 -124 67 -165 113 -39 44 -83 142 -100
222 -18 90 -28 105 -19 30z"/>
<path d="M8881 5076 c105 -129 288 -285 446 -379 84 -51 255 -131 329 -155
165 -53 235 -66 384 -66 l145 -1 3 35 c2 29 -6 48 -46 105 -58 83 -161 196
-205 227 -25 17 -21 10 19 -34 130 -144 214 -263 214 -304 0 -15 -12 -16 -127
-11 -210 9 -401 62 -603 168 -190 100 -310 191 -514 388 l-109 106 64 -79z"/>
<path d="M6264 5098 l-19 -23 23 19 c12 11 22 21 22 23 0 8 -8 2 -26 -19z"/>
<path d="M6229 5053 c-13 -16 -12 -17 4 -4 9 7 17 15 17 17 0 8 -8 3 -21 -13z"/>
<path d="M6199 5013 c-13 -16 -12 -17 4 -4 9 7 17 15 17 17 0 8 -8 3 -21 -13z"/>
<path d="M10520 4986 c0 -2 8 -10 18 -17 15 -13 16 -12 3 4 -13 16 -21 21 -21
13z"/>
<path d="M8161 4977 c-1 -5 37 -133 83 -285 376 -1235 529 -1782 501 -1782 -3
0 -60 32 -128 71 -143 82 -427 227 -577 294 -149 66 -401 167 -406 162 -3 -2
17 -12 43 -22 245 -92 644 -282 908 -435 87 -49 162 -90 166 -90 5 0 9 12 9
26 0 23 86 341 340 1254 38 135 67 246 65 248 -4 4 -85 -218 -161 -443 -119
-349 -213 -696 -236 -867 -6 -48 -14 -86 -16 -83 -2 2 -23 77 -47 167 -23 90
-53 202 -65 250 l-24 87 27 115 c88 372 118 570 124 819 3 114 1 203 -4 208
-5 5 -7 -40 -5 -115 5 -143 -8 -298 -43 -503 -28 -167 -93 -464 -104 -475 -3
-4 -46 124 -94 286 -83 276 -324 1042 -346 1096 -5 14 -10 21 -10 17z"/>
<path d="M8114 4933 c2 -10 18 -63 35 -118 38 -128 194 -683 261 -930 108
-400 100 -361 81 -381 -15 -17 -15 -17 1 -5 19 14 21 8 68 -172 13 -48 25 -85
27 -83 7 7 -250 1002 -323 1251 -47 160 -144 455 -151 455 -2 0 -2 -8 1 -17z"/>
<path d="M7595 4700 c44 -44 82 -80 85 -80 2 0 -31 36 -75 80 -44 44 -82 80
-85 80 -2 0 31 -36 75 -80z"/>
<path d="M7700 4606 c0 -2 8 -10 18 -17 15 -13 16 -12 3 4 -13 16 -21 21 -21
13z"/>
<path d="M7740 4576 c0 -2 8 -10 18 -17 15 -13 16 -12 3 4 -13 16 -21 21 -21
13z"/>
<path d="M9641 4189 c-1 -4 14 -71 33 -150 19 -79 46 -214 61 -299 15 -85 30
-171 35 -190 l8 -35 1 35 c2 72 -21 210 -64 385 -39 159 -72 272 -74 254z"/>
<path d="M7530 4006 c0 -2 8 -10 18 -17 15 -13 16 -12 3 4 -13 16 -21 21 -21
13z"/>
<path d="M7620 3905 c30 -30 57 -55 59 -55 3 0 -19 25 -49 55 -30 30 -57 55
-59 55 -3 0 19 -25 49 -55z"/>
<path d="M7310 3913 c0 -5 9 -42 19 -83 22 -86 65 -199 117 -303 32 -64 34
-73 19 -83 -22 -16 -127 -41 -249 -59 -54 -8 -102 -17 -105 -21 -8 -8 95 4
209 26 178 34 184 41 134 147 -58 123 -102 245 -116 317 -7 36 -16 66 -20 66
-5 0 -8 -3 -8 -7z"/>
<path d="M7705 3830 c10 -11 20 -20 23 -20 3 0 -3 9 -13 20 -10 11 -20 20 -23
20 -3 0 3 -9 13 -20z"/>
<path d="M6124 3723 c-4 -37 -4 -147 -2 -244 l5 -178 -51 20 c-123 48 -345
199 -501 340 -77 70 -53 38 38 -49 138 -133 327 -261 459 -312 44 -17 81 -30
83 -28 1 2 -2 35 -7 73 -6 39 -11 154 -12 257 0 104 -2 188 -3 188 -1 0 -5
-30 -9 -67z"/>
<path d="M6301 3655 c0 -5 7 -50 16 -100 24 -129 24 -379 -1 -459 -43 -143
-123 -247 -226 -295 -70 -32 -175 -40 -251 -18 -29 9 -55 14 -57 13 -6 -7 93
-35 148 -43 30 -4 47 -9 38 -11 -10 -2 -18 -6 -18 -9 0 -3 51 -103 114 -222
277 -527 483 -1006 556 -1289 6 -24 14 -42 18 -40 4 2 231 228 504 503 l498
500 -35 130 c-20 72 -43 135 -51 142 -20 15 -372 132 -534 177 -334 94 -544
129 -772 130 -98 1 -178 2 -178 3 0 2 22 14 49 27 179 91 267 324 232 621 -10
89 -47 266 -50 240z m569 -996 c41 -11 86 -22 100 -25 98 -20 564 -174 583
-193 6 -6 -1 -22 -19 -46 -37 -47 -454 -426 -704 -640 -107 -92 -202 -174
-210 -183 -48 -50 369 295 590 488 130 114 282 264 328 324 12 16 24 27 25 25
2 -2 12 -35 23 -74 23 -80 31 -60 -77 -184 -95 -109 -439 -445 -684 -669
l-210 -191 -41 122 c-72 214 -191 492 -321 750 -35 71 -63 133 -61 138 6 17
562 379 583 379 11 0 54 -9 95 -21z m750 -452 c0 -22 -971 -1010 -981 -999 -4
4 -10 21 -13 38 -7 30 0 38 221 240 255 234 671 644 723 715 34 46 49 48 50 6z"/>
<path d="M6852 2581 c-94 -57 -590 -415 -532 -384 38 19 525 356 605 417 38
30 8 16 -73 -33z"/>
<path d="M7110 2542 c-45 -36 -329 -237 -532 -377 -87 -59 -158 -110 -158
-112 0 -3 10 1 23 9 12 8 101 66 197 128 227 147 380 256 455 324 64 59 72 75
15 28z"/>
<path d="M7317 2464 c-47 -73 -332 -303 -649 -523 -82 -57 -148 -105 -148
-107 0 -15 458 301 596 412 100 81 195 178 220 226 24 46 12 41 -19 -8z"/>
<path d="M8177 3567 c-3 -8 1 -14 8 -14 7 0 11 6 8 14 -3 7 -6 13 -8 13 -2 0
-5 -6 -8 -13z"/>
<path d="M8149 3523 c-13 -16 -12 -17 4 -4 9 7 17 15 17 17 0 8 -8 3 -21 -13z"/>
<path d="M8339 3503 l-34 -38 40 35 c22 19 42 36 44 38 2 1 0 2 -5 2 -6 0 -26
-17 -45 -37z"/>
<path d="M8400 3526 c0 -2 8 -10 18 -17 15 -13 16 -12 3 4 -13 16 -21 21 -21
13z"/>
<path d="M8078 3493 c7 -3 16 -2 19 1 4 3 -2 6 -13 5 -11 0 -14 -3 -6 -6z"/>
<path d="M8220 3486 c0 -2 8 -10 18 -17 15 -13 16 -12 3 4 -13 16 -21 21 -21
13z"/>
<path d="M10270 3487 c0 -3 30 -22 68 -43 176 -98 336 -227 401 -325 23 -34
41 -55 41 -47 0 27 -76 132 -129 180 -29 26 -84 68 -122 94 -71 47 -259 149
-259 141z"/>
<path d="M5710 3413 c-18 -32 -50 -81 -71 -110 -35 -47 -42 -52 -64 -43 -51
19 -106 51 -172 100 l-68 51 64 -62 c73 -70 183 -129 210 -112 23 14 87 112
116 177 14 31 23 56 21 56 -2 0 -19 -26 -36 -57z"/>
<path d="M11900 3437 c0 -2 15 -16 33 -33 l32 -29 -29 33 c-28 30 -36 37 -36
29z"/>
<path d="M11960 3367 c0 -2 15 -16 33 -33 l32 -29 -29 33 c-28 30 -36 37 -36
29z"/>
<path d="M5900 3272 c-50 -101 -190 -415 -187 -419 4 -4 168 333 202 416 14
35 25 65 23 67 -2 2 -19 -27 -38 -64z"/>
<path d="M12045 3270 c10 -11 20 -20 23 -20 3 0 -3 9 -13 20 -10 11 -20 20
-23 20 -3 0 3 -9 13 -20z"/>
<path d="M12100 3205 c13 -14 26 -25 28 -25 3 0 -5 11 -18 25 -13 14 -26 25
-28 25 -3 0 5 -11 18 -25z"/>
<path d="M12150 3145 c13 -14 26 -25 28 -25 3 0 -5 11 -18 25 -13 14 -26 25
-28 25 -3 0 5 -11 18 -25z"/>
<path d="M12195 3090 c10 -11 20 -20 23 -20 3 0 -3 9 -13 20 -10 11 -20 20
-23 20 -3 0 3 -9 13 -20z"/>
<path d="M12230 3046 c0 -2 8 -10 18 -17 15 -13 16 -12 3 4 -13 16 -21 21 -21
13z"/>
<path d="M12270 2996 c0 -2 8 -10 18 -17 15 -13 16 -12 3 4 -13 16 -21 21 -21
13z"/>
<path d="M7878 2983 c12 -2 32 -2 45 0 12 2 2 4 -23 4 -25 0 -35 -2 -22 -4z"/>
<path d="M7983 2973 c9 -2 23 -2 30 0 6 3 -1 5 -18 5 -16 0 -22 -2 -12 -5z"/>
<path d="M6830 2962 c0 -13 1377 -558 1386 -549 2 2 -150 64 -339 139 -188 75
-496 199 -684 277 -188 78 -347 141 -353 141 -5 0 -10 -4 -10 -8z"/>
<path d="M12325 2930 c10 -11 20 -20 23 -20 3 0 -3 9 -13 20 -10 11 -20 20
-23 20 -3 0 3 -9 13 -20z"/>
<path d="M12350 2896 c0 -2 8 -10 18 -17 15 -13 16 -12 3 4 -13 16 -21 21 -21
13z"/>
<path d="M11020 2865 c0 -5 5 -17 10 -25 5 -8 10 -10 10 -5 0 6 -5 17 -10 25
-5 8 -10 11 -10 5z"/>
<path d="M12390 2846 c0 -2 8 -10 18 -17 15 -13 16 -12 3 4 -13 16 -21 21 -21
13z"/>
<path d="M12435 2790 c10 -11 20 -20 23 -20 3 0 -3 9 -13 20 -10 11 -20 20
-23 20 -3 0 3 -9 13 -20z"/>
<path d="M6518 2793 c6 -2 18 -2 25 0 6 3 1 5 -13 5 -14 0 -19 -2 -12 -5z"/>
<path d="M12460 2756 c0 -2 8 -10 18 -17 15 -13 16 -12 3 4 -13 16 -21 21 -21
13z"/>
<path d="M12505 2700 c10 -11 20 -20 23 -20 3 0 -3 9 -13 20 -10 11 -20 20
-23 20 -3 0 3 -9 13 -20z"/>
<path d="M12530 2666 c0 -2 8 -10 18 -17 15 -13 16 -12 3 4 -13 16 -21 21 -21
13z"/>
<path d="M12560 2626 c0 -2 8 -10 18 -17 15 -13 16 -12 3 4 -13 16 -21 21 -21
13z"/>
<path d="M12590 2586 c0 -2 8 -10 18 -17 15 -13 16 -12 3 4 -13 16 -21 21 -21
13z"/>
<path d="M4500 2503 l-55 -58 58 55 c53 50 62 60 54 60 -1 0 -27 -26 -57 -57z"/>
<path d="M12620 2546 c0 -2 8 -10 18 -17 15 -13 16 -12 3 4 -13 16 -21 21 -21
13z"/>
<path d="M5180 2398 c-24 -32 -30 -50 -29 -87 l2 -46 6 46 c4 26 19 65 34 88
35 53 26 53 -13 -1z"/>
<path d="M12710 2426 c0 -2 8 -10 18 -17 15 -13 16 -12 3 4 -13 16 -21 21 -21
13z"/>
<path d="M8270 2390 c8 -5 20 -10 25 -10 6 0 3 5 -5 10 -8 5 -19 10 -25 10 -5
0 -3 -5 5 -10z"/>
<path d="M12740 2386 c0 -2 8 -10 18 -17 15 -13 16 -12 3 4 -13 16 -21 21 -21
13z"/>
<path d="M12770 2346 c0 -2 8 -10 18 -17 15 -13 16 -12 3 4 -13 16 -21 21 -21
13z"/>
<path d="M2358 2283 c7 -3 16 -2 19 1 4 3 -2 6 -13 5 -11 0 -14 -3 -6 -6z"/>
<path d="M8738 2083 c7 -3 16 -2 19 1 4 3 -2 6 -13 5 -11 0 -14 -3 -6 -6z"/>
<path d="M8778 2073 c7 -3 16 -2 19 1 4 3 -2 6 -13 5 -11 0 -14 -3 -6 -6z"/>
<path d="M8818 2063 c7 -3 16 -2 19 1 4 3 -2 6 -13 5 -11 0 -14 -3 -6 -6z"/>
<path d="M5182 2040 c39 -25 349 -154 495 -206 195 -69 346 -108 497 -129 134
-19 191 -16 71 4 -269 43 -613 148 -941 287 -125 52 -147 60 -122 44z"/>
<path d="M8888 2043 c7 -3 16 -2 19 1 4 3 -2 6 -13 5 -11 0 -14 -3 -6 -6z"/>
<path d="M8928 2033 c7 -3 16 -2 19 1 4 3 -2 6 -13 5 -11 0 -14 -3 -6 -6z"/>
<path d="M8975 2020 c11 -5 27 -9 35 -9 9 0 8 4 -5 9 -11 5 -27 9 -35 9 -9 0
-8 -4 5 -9z"/>
<path d="M4793 2007 c33 -27 392 -205 545 -271 291 -126 622 -231 856 -272
125 -21 117 -12 -12 14 -339 67 -760 222 -1227 454 -99 49 -172 82 -162 75z"/>
<path d="M9038 2003 c7 -3 16 -2 19 1 4 3 -2 6 -13 5 -11 0 -14 -3 -6 -6z"/>
<path d="M4538 1924 c35 -51 152 -155 247 -220 297 -203 734 -347 1295 -429
183 -26 399 -49 406 -42 3 2 -44 10 -103 16 -253 28 -612 94 -823 151 -462
124 -771 279 -979 490 -35 36 -55 51 -43 34z"/>
</g>
</svg>
